<svg xmlns="http://www.w3.org/2000/svg" version="1.1" xmlns:xlink="http://www.w3.org/1999/xlink" xmlns:svgjs="http://svgjs.dev/svgjs" width="128" height="128" viewBox="0 0 128 128"><g transform="matrix(0.8046875,0,0,0.8046875,12.760752631578946,20.11434304441766)"><svg viewBox="0 0 95 81" data-background-color="#ffffff" preserveAspectRatio="xMidYMid meet" height="109" width="128" xmlns="http://www.w3.org/2000/svg" xmlns:xlink="http://www.w3.org/1999/xlink"><g id="tight-bounds" transform="matrix(1,0,0,1,-0.24049999999999727,0.027878446199139262)"><svg viewBox="0 0 95.481 80.94413352169698" height="80.94413352169698" width="95.481"><g><svg viewBox="0 0 95.481 80.94413352169698" height="80.94413352169698" width="95.481"><g><svg viewBox="0 0 95.481 80.94413352169698" height="80.94413352169698" width="95.481"><g><svg viewBox="0 0 95.481 80.94413352169698" height="80.94413352169698" width="95.481"><g><svg viewBox="0 0 95.481 80.94413352169698" height="80.94413352169698" width="95.481"><g><svg viewBox="0 0 95.481 80.94413352169698" height="80.94413352169698" width="95.481"><g><svg xmlns:dc="http://purl.org/dc/elements/1.1/" xmlns:cc="http://creativecommons.org/ns#" xmlns:rdf="http://www.w3.org/1999/02/22-rdf-syntax-ns#" xmlns:svg="http://www.w3.org/2000/svg" xmlns="http://www.w3.org/2000/svg" xmlns:sodipodi="http://sodipodi.sourceforge.net/DTD/sodipodi-0.dtd" xmlns:inkscape="http://www.inkscape.org/namespaces/inkscape" version="1.1" x="0" y="0" viewBox="0 21.888672 287.52539 243.749998" style="enable-background:new 0 0 287.525 287.525;" xml:space="preserve" width="95.481" height="80.94413352169698" class="icon-icon-0" data-fill-palette-color="accent" id="icon-0"><path d="M142.93 21.889C138.787 21.889 135.43 25.246 135.43 29.389L135.43 46.389C135.43 50.531 138.787 53.889 142.93 53.889 147.073 53.889 150.43 50.532 150.43 46.389L150.43 29.389C150.43 25.246 147.073 21.889 142.93 21.889zM179.086 38.984C177.167 38.985 175.249 39.719 173.785 41.184L161.766 53.203C158.837 56.132 158.838 60.883 161.768 63.811 163.231 65.276 165.149 66.008 167.068 66.008 168.987 66.008 170.907 65.276 172.371 63.811L184.393 51.789C187.322 48.86 187.321 44.111 184.391 41.182 182.926 39.717 181.005 38.984 179.086 38.984zM107.271 38.986C105.352 38.986 103.433 39.72 101.969 41.184 99.039 44.113 99.04 48.86 101.969 51.789L113.986 63.811C115.451 65.276 117.371 66.008 119.291 66.008 121.21 66.008 123.13 65.275 124.594 63.811 127.524 60.882 127.525 56.133 124.596 53.205L112.574 41.184C111.11 39.719 109.191 38.986 107.271 38.986zM49.264 80.639C35.479 80.639 23.43 91.104 23.43 104.889L23.43 226.627C23.43 226.625 24.017 226.639 24.145 226.639L262.43 226.639 262.43 104.889C262.43 91.104 252.049 80.639 238.264 80.639L49.264 80.639zM143.764 114.092C187.762 114.092 206.657 148.384 207.441 149.844 208.627 152.054 208.629 154.709 207.447 156.922 206.667 158.382 187.839 192.684 143.764 192.684 99.689 192.684 80.857 158.382 80.076 156.922 78.894 154.709 78.896 152.054 80.082 149.844 80.865 148.384 99.765 114.092 143.764 114.092zM143.729 128.199C129.84 128.199 118.541 139.498 118.541 153.387 118.541 167.276 129.841 178.574 143.729 178.574 157.617 178.574 168.918 167.275 168.918 153.387 168.918 139.498 157.618 128.199 143.729 128.199zM143.729 143.199C149.346 143.199 153.918 147.769 153.918 153.387 153.918 159.004 149.347 163.574 143.729 163.574 138.111 163.574 133.541 159.005 133.541 153.387 133.541 147.77 138.111 143.199 143.729 143.199zM24.145 241.639C12.394 241.639 2.39 253.639 0 265.639L287.525 265.639C285.15 253.639 275.208 241.639 263.459 241.639L24.145 241.639z" fill="#259f87" data-fill-palette-color="accent"></path></svg></g></svg></g></svg></g></svg></g></svg></g></svg></g><defs></defs></svg><rect width="95.481" height="80.94413352169698" fill="none" stroke="none" visibility="hidden"></rect></g></svg></g></svg>