<svg width="480" height="374" viewBox="0 0 480 374" fill="none" xmlns="http://www.w3.org/2000/svg">
<g clip-path="url(#clip0_704_2158)">
<path opacity="0.1" d="M278.889 65.7837C248.117 64.6303 218.785 53.9166 190.82 42.1973C162.854 30.4779 135.136 17.4909 105.084 11.2809C85.7626 7.28233 63.6658 6.71995 48.1008 17.8912C33.1192 28.6383 28.28 47.1919 25.677 64.4063C23.7192 77.36 22.5834 90.9905 27.9352 103.12C31.6608 111.536 38.2721 118.614 42.8462 126.677C58.7559 154.734 47.5086 189.335 30.2642 216.753C22.1768 229.621 12.7945 241.864 6.55438 255.547C0.314241 269.23 -2.57602 284.905 2.88631 298.86C8.30003 312.681 21.1957 323.08 35.1697 330.386C63.5509 345.213 96.9922 349.454 129.603 351.885C201.788 357.208 274.363 354.902 346.739 352.595C373.525 351.737 400.43 350.875 426.778 346.399C441.411 343.916 456.52 339.98 467.145 330.477C480.628 318.409 483.973 297.983 474.936 282.851C459.777 257.477 417.869 251.172 407.271 223.94C401.442 208.951 407.43 192.251 415.906 178.349C434.083 148.529 464.559 122.364 466.163 88.2739C467.268 64.8591 452.618 41.4156 429.964 30.335C406.224 18.7109 373.299 20.1788 355.785 39.3901C337.75 59.1829 306.054 66.7988 278.889 65.7837Z" fill="#259F87"/>
<path d="M107.059 345.546C107.059 345.546 82.7523 325.73 78.1606 300.523C76.2985 289.936 71.3039 280.286 63.9258 273.019C60.3963 269.601 56.5842 266.538 52.5371 263.868" stroke="#535461" stroke-width="2" stroke-miterlimit="10"/>
<path d="M49.5631 247.988C51.6932 251.096 52.6567 264.264 52.6567 264.264C52.6567 264.264 41.268 259.427 39.1334 256.324C38.1084 254.832 37.6748 252.963 37.928 251.127C38.1812 249.29 39.1005 247.638 40.4835 246.532C41.8666 245.427 43.6002 244.959 45.3029 245.233C47.0057 245.506 48.5381 246.497 49.5631 247.988Z" fill="#259F87"/>
<path d="M69.9897 258.321C70.2106 262.177 64.3903 273.796 64.3903 273.796C64.3903 273.796 57.2619 263.053 57.0365 259.198C56.9508 257.36 57.5401 255.559 58.6769 254.186C59.8136 252.814 61.4061 251.979 63.1093 251.864C64.8126 251.749 66.4894 252.362 67.7764 253.57C69.0635 254.779 69.8571 256.486 69.9852 258.321H69.9897Z" fill="#259F87"/>
<path d="M89.7884 288.022C88.1797 291.472 77.7102 298.335 77.7102 298.335C77.7102 298.335 76.5922 285.181 78.2008 281.731C78.9927 280.108 80.3436 278.886 81.9629 278.326C83.5822 277.767 85.3404 277.916 86.8591 278.74C88.3779 279.565 89.5357 280.999 90.0836 282.735C90.6314 284.471 90.5254 286.369 89.7884 288.022Z" fill="#259F87"/>
<path d="M100.081 314.12C99.0334 317.814 89.7926 326.483 89.7926 326.483C89.7926 326.483 86.6239 313.724 87.6713 310.026C88.1747 308.251 89.3112 306.765 90.8308 305.894C92.3504 305.023 94.1286 304.839 95.7742 305.382C97.4198 305.925 98.798 307.15 99.6057 308.789C100.413 310.428 100.584 312.345 100.081 314.12Z" fill="#259F87"/>
<path d="M53.8545 283.137C57.39 283.652 68.5665 278.209 68.5665 278.209C68.5665 278.209 59.1356 269.783 55.5824 269.268C53.877 269.021 52.1505 269.515 50.7826 270.64C49.4146 271.766 48.5174 273.432 48.2883 275.271C48.0591 277.11 48.5168 278.972 49.5607 280.447C50.6046 281.922 52.1491 282.89 53.8545 283.137Z" fill="#259F87"/>
<path d="M66.2503 313.5C69.7858 312.847 78.9206 304.054 78.9206 304.054C78.9206 304.054 67.5806 299.06 64.0495 299.713C63.2041 299.862 62.3945 300.191 61.6674 300.679C60.9404 301.168 60.3103 301.807 59.8135 302.56C59.3167 303.312 58.9631 304.164 58.773 305.065C58.5829 305.965 58.5602 306.898 58.7061 307.808C58.852 308.719 59.1637 309.589 59.6231 310.369C60.0825 311.149 60.6806 311.822 61.3828 312.352C62.085 312.881 62.8775 313.255 63.7144 313.452C64.5514 313.649 65.4163 313.666 66.2592 313.5H66.2503Z" fill="#259F87"/>
<path d="M82.0497 341.233C85.6338 341.233 96.0193 334.232 96.0193 334.232C96.0193 334.232 85.6293 327.24 82.0452 327.24C80.3246 327.24 78.6745 327.978 77.4578 329.29C76.2411 330.602 75.5576 332.381 75.5576 334.237C75.5576 336.092 76.2411 337.872 77.4578 339.184C78.6745 340.496 80.3246 341.233 82.0452 341.233H82.0497Z" fill="#259F87"/>
<path d="M343.186 174.151C343.186 174.151 358.167 145.531 380.75 137.286C390.233 133.89 398.439 127.27 404.137 118.418C406.81 114.186 409.116 109.699 411.027 105.012" stroke="#535461" stroke-width="2" stroke-miterlimit="10"/>
<path d="M425.204 99.7692C422.632 102.457 410.66 105.24 410.66 105.24C410.66 105.24 413.599 92.4202 416.171 89.7274C417.413 88.4739 419.061 87.7963 420.761 87.8404C422.461 87.8845 424.077 88.6468 425.262 89.9632C426.446 91.2796 427.103 93.0448 427.093 94.8788C427.082 96.7129 426.404 98.469 425.204 99.7692Z" fill="#259F87"/>
<path d="M418.434 122.946C414.899 123.699 403.466 119.019 403.466 119.019C403.466 119.019 412.393 109.963 415.906 109.225C416.75 109.023 417.622 109.005 418.473 109.171C419.323 109.338 420.133 109.686 420.857 110.196C421.581 110.705 422.203 111.365 422.687 112.137C423.171 112.909 423.507 113.778 423.675 114.692C423.844 115.606 423.841 116.547 423.667 117.46C423.494 118.372 423.153 119.239 422.665 120.008C422.177 120.777 421.551 121.433 420.824 121.937C420.098 122.442 419.285 122.785 418.434 122.946Z" fill="#259F87"/>
<path d="M393.791 148.052C390.406 146.789 382.712 136.514 382.712 136.514C382.712 136.514 394.644 133.569 398.038 134.832C398.854 135.124 399.607 135.587 400.255 136.195C400.903 136.804 401.433 137.545 401.813 138.376C402.193 139.207 402.417 140.111 402.471 141.035C402.524 141.96 402.407 142.887 402.126 143.763C401.845 144.638 401.405 145.445 400.832 146.135C400.26 146.826 399.565 147.387 398.79 147.786C398.015 148.185 397.174 148.415 396.315 148.46C395.457 148.506 394.599 148.367 393.791 148.052Z" fill="#259F87"/>
<path d="M371.147 162.522C367.611 161.893 358.437 153.147 358.437 153.147C358.437 153.147 369.746 148.067 373.277 148.696C374.976 148.997 376.495 150.014 377.499 151.524C378.503 153.033 378.91 154.91 378.631 156.743C378.351 158.576 377.408 160.214 376.009 161.297C374.609 162.379 372.868 162.818 371.169 162.517L371.147 162.522Z" fill="#259F87"/>
<path d="M393.482 108.996C393.478 112.861 399.979 124.075 399.979 124.075C399.979 124.075 406.471 112.875 406.471 109.015C406.494 108.081 406.343 107.152 406.027 106.282C405.711 105.412 405.237 104.619 404.632 103.95C404.028 103.281 403.305 102.749 402.507 102.386C401.709 102.023 400.852 101.836 399.986 101.836C399.119 101.836 398.262 102.023 397.464 102.386C396.666 102.749 395.943 103.281 395.339 103.95C394.734 104.619 394.26 105.412 393.944 106.282C393.629 107.152 393.478 108.081 393.5 109.015L393.482 108.996Z" fill="#259F87"/>
<path d="M367.218 126.277C368.287 129.966 377.585 138.568 377.585 138.568C377.585 138.568 380.679 125.786 379.601 122.097C379.041 120.388 377.889 118.98 376.386 118.169C374.883 117.358 373.147 117.207 371.544 117.749C369.94 118.291 368.594 119.482 367.788 121.073C366.983 122.664 366.782 124.529 367.226 126.277H367.218Z" fill="#259F87"/>
<path d="M343.853 146.851C344.33 150.664 352.144 160.849 352.144 160.849C352.144 160.849 357.186 148.815 356.709 144.988C356.614 144.061 356.348 143.163 355.927 142.348C355.506 141.533 354.938 140.818 354.257 140.243C353.576 139.668 352.795 139.246 351.96 139.002C351.125 138.757 350.253 138.696 349.396 138.82C348.539 138.944 347.713 139.252 346.968 139.725C346.222 140.199 345.572 140.828 345.056 141.577C344.539 142.325 344.167 143.177 343.96 144.083C343.754 144.989 343.717 145.93 343.853 146.851Z" fill="#259F87"/>
<path opacity="0.25" d="M425.204 99.7692C422.632 102.457 410.66 105.24 410.66 105.24C410.66 105.24 413.599 92.4202 416.171 89.7274C417.413 88.4739 419.061 87.7963 420.761 87.8404C422.461 87.8845 424.077 88.6468 425.262 89.9632C426.446 91.2796 427.103 93.0448 427.093 94.8788C427.082 96.7129 426.404 98.469 425.204 99.7692Z" fill="black"/>
<path opacity="0.25" d="M418.434 122.946C414.899 123.699 403.466 119.019 403.466 119.019C403.466 119.019 412.393 109.963 415.906 109.225C416.75 109.023 417.622 109.005 418.473 109.171C419.323 109.338 420.133 109.686 420.857 110.196C421.581 110.705 422.203 111.365 422.687 112.137C423.171 112.909 423.507 113.778 423.675 114.692C423.844 115.606 423.841 116.547 423.667 117.46C423.494 118.372 423.153 119.239 422.665 120.008C422.177 120.777 421.551 121.433 420.824 121.937C420.098 122.442 419.285 122.785 418.434 122.946Z" fill="black"/>
<path opacity="0.25" d="M393.791 148.052C390.406 146.789 382.712 136.514 382.712 136.514C382.712 136.514 394.644 133.569 398.038 134.832C398.854 135.124 399.607 135.587 400.255 136.195C400.903 136.804 401.433 137.545 401.813 138.376C402.193 139.207 402.417 140.111 402.471 141.035C402.524 141.96 402.407 142.887 402.126 143.763C401.845 144.638 401.405 145.445 400.832 146.135C400.26 146.826 399.565 147.387 398.79 147.786C398.015 148.185 397.174 148.415 396.315 148.46C395.457 148.506 394.599 148.367 393.791 148.052Z" fill="black"/>
<path opacity="0.25" d="M371.147 162.522C367.611 161.893 358.437 153.147 358.437 153.147C358.437 153.147 369.746 148.067 373.277 148.696C374.976 148.997 376.495 150.014 377.499 151.524C378.503 153.033 378.91 154.91 378.631 156.743C378.351 158.576 377.408 160.214 376.009 161.297C374.609 162.379 372.868 162.818 371.169 162.517L371.147 162.522Z" fill="black"/>
<path opacity="0.25" d="M393.482 108.996C393.478 112.861 399.979 124.075 399.979 124.075C399.979 124.075 406.471 112.875 406.471 109.015C406.494 108.081 406.343 107.152 406.027 106.282C405.711 105.412 405.237 104.619 404.632 103.95C404.028 103.281 403.305 102.749 402.507 102.386C401.709 102.023 400.852 101.836 399.986 101.836C399.119 101.836 398.262 102.023 397.464 102.386C396.666 102.749 395.943 103.281 395.339 103.95C394.734 104.619 394.26 105.412 393.944 106.282C393.629 107.152 393.478 108.081 393.5 109.015L393.482 108.996Z" fill="black"/>
<path opacity="0.25" d="M367.218 126.277C368.287 129.966 377.585 138.568 377.585 138.568C377.585 138.568 380.679 125.786 379.601 122.097C379.041 120.388 377.889 118.98 376.386 118.169C374.883 117.358 373.147 117.207 371.544 117.749C369.94 118.291 368.594 119.482 367.788 121.073C366.983 122.664 366.782 124.529 367.226 126.277H367.218Z" fill="black"/>
<path opacity="0.25" d="M343.853 146.851C344.33 150.664 352.144 160.849 352.144 160.849C352.144 160.849 357.186 148.815 356.709 144.988C356.614 144.061 356.348 143.163 355.927 142.348C355.506 141.533 354.938 140.818 354.257 140.243C353.576 139.668 352.795 139.246 351.96 139.002C351.125 138.757 350.253 138.696 349.396 138.82C348.539 138.944 347.713 139.252 346.968 139.725C346.222 140.199 345.572 140.828 345.056 141.577C344.539 142.325 344.167 143.177 343.96 144.083C343.754 144.989 343.717 145.93 343.853 146.851Z" fill="black"/>
<path d="M344.047 173.583C344.047 173.583 346.99 140.87 364.517 123.475C371.91 116.225 376.925 106.587 378.81 96.0042C379.667 90.9734 380.095 85.8684 380.087 80.7533" stroke="#535461" stroke-width="2" stroke-miterlimit="10"/>
<path d="M391.074 69.7155C389.748 73.2995 379.831 81.0774 379.831 81.0774C379.831 81.0774 377.701 68.0713 379.04 64.4873C379.684 62.7664 380.937 61.3921 382.521 60.6668C384.105 59.9415 385.892 59.9246 387.487 60.6198C389.083 61.315 390.357 62.6654 391.03 64.3738C391.703 66.0823 391.718 68.0089 391.074 69.7298V69.7155Z" fill="#259F87"/>
<path d="M393.597 93.8881C390.667 96.109 378.438 96.8382 378.438 96.8382C378.438 96.8382 383.203 84.6661 386.133 82.4452C386.827 81.8844 387.62 81.4796 388.462 81.2548C389.305 81.0301 390.181 80.99 391.038 81.1368C391.895 81.2836 392.716 81.6145 393.453 82.1097C394.189 82.605 394.826 83.2545 395.325 84.02C395.825 84.7854 396.177 85.6512 396.361 86.566C396.544 87.4808 396.556 88.426 396.395 89.3457C396.234 90.2655 395.903 91.1409 395.422 91.9204C394.942 92.6998 394.321 93.3673 393.597 93.8833V93.8881Z" fill="#259F87"/>
<path d="M380.49 127.621C376.919 127.945 366.021 121.902 366.021 121.902C366.021 121.902 375.832 113.991 379.402 113.666C381.117 113.511 382.819 114.096 384.133 115.294C385.448 116.492 386.267 118.204 386.411 120.053C386.556 121.902 386.013 123.737 384.902 125.155C383.792 126.572 382.204 127.456 380.49 127.611V127.621Z" fill="#259F87"/>
<path d="M365.238 150.731C361.769 151.684 350.084 147.743 350.084 147.743C350.084 147.743 358.512 138.158 361.981 137.186C363.646 136.72 365.415 136.987 366.898 137.928C368.382 138.869 369.457 140.406 369.889 142.202C370.321 143.998 370.074 145.906 369.202 147.505C368.329 149.105 366.904 150.265 365.238 150.731Z" fill="#259F87"/>
<path d="M365.547 92.0389C366.997 95.5704 377.135 103 377.135 103C377.135 103 378.858 89.9229 377.409 86.3913C376.686 84.7391 375.393 83.457 373.806 82.819C372.219 82.181 370.463 82.2378 368.914 82.9771C367.366 83.7164 366.146 85.0797 365.517 86.7757C364.888 88.4716 364.899 90.3657 365.547 92.0532V92.0389Z" fill="#259F87"/>
<path d="M348.029 119.309C350.394 122.212 362.123 126.015 362.123 126.015C362.123 126.015 360.143 112.98 357.779 110.078C357.22 109.373 356.538 108.794 355.771 108.376C355.004 107.958 354.167 107.708 353.31 107.642C352.452 107.575 351.591 107.693 350.776 107.988C349.962 108.284 349.209 108.751 348.563 109.363C347.918 109.974 347.391 110.718 347.014 111.551C346.637 112.385 346.417 113.29 346.367 114.216C346.318 115.141 346.439 116.068 346.724 116.942C347.01 117.817 347.453 118.621 348.029 119.309Z" fill="#259F87"/>
<path d="M334.378 148.343C336.251 151.632 347.216 157.518 347.216 157.518C347.216 157.518 347.309 144.311 345.448 141.018C344.522 139.497 343.083 138.426 341.436 138.03C339.79 137.635 338.065 137.946 336.628 138.899C335.191 139.852 334.154 141.371 333.738 143.134C333.322 144.897 333.56 146.766 334.4 148.343H334.378Z" fill="#259F87"/>
<path d="M321.509 45.4714C322.242 42.569 323.126 39.6522 323.745 36.7117C323.003 39.6522 322.114 42.5785 321.509 45.4714Z" fill="url(#paint0_linear_704_2158)"/>
<path d="M318.22 73.4281C318.158 73.3138 318.114 73.1994 318.066 73.0945C318.066 73.0469 318.021 73.0088 318.004 72.9611C317.907 73.0101 317.809 73.0531 317.708 73.0898C317.513 73.1708 317.314 73.247 317.111 73.309C316.908 73.371 316.824 73.4043 316.669 73.4424C316.541 73.4901 316.409 73.5267 316.276 73.5521L316.311 73.6378C316.475 73.5997 316.634 73.5664 316.797 73.5187L316.841 74.1097C317.027 74.1097 317.199 74.0811 317.367 74.0811C317.447 74.0764 317.526 74.0764 317.606 74.0811C317.951 74.0811 318.251 74.0811 318.49 74.0811C318.397 73.8666 318.3 73.6426 318.22 73.4281ZM407.933 227.428C405.856 224.412 401.711 192.032 401.711 192.032C401.711 192.032 393.557 169.008 395.78 159.819C398.003 150.631 389.708 127.121 389.708 127.121C389.708 127.121 384.228 124.552 383.932 120.739C383.932 120.739 361.557 113.114 360.509 107.395C359.661 102.705 345.784 99.3403 340.799 98.2775C339.279 91.6624 337.749 85.4906 336.622 82.1211C336.318 81.0726 336.03 80.1671 335.765 79.4522C333.86 74.2098 327.974 73.7332 323.705 74.1526C323.52 73.259 323.176 72.4126 322.693 71.66C322.622 71.4013 322.482 71.1708 322.291 70.9975C322.199 70.9133 322.101 70.8368 321.999 70.7688C321.922 70.6143 321.82 70.4756 321.698 70.3589C321.577 70.2411 321.444 70.1388 321.301 70.0539C321.198 69.994 321.092 69.9414 320.982 69.8966C320.726 69.7914 320.461 69.7132 320.191 69.6631C319.877 69.5933 319.558 69.5487 319.237 69.5296C320.017 69.1617 320.712 68.6134 321.274 67.9235C321.656 67.4392 321.941 66.8744 322.109 66.265C322.249 65.7582 322.312 65.2303 322.295 64.7018C322.18 64.9196 322.047 65.1254 321.897 65.3166C322.083 63.2053 321.049 61.0607 320.456 58.9589C319.739 56.2227 319.606 53.3467 320.068 50.5471C320.66 46.3245 322.127 42.0543 323.121 37.7554C323.124 37.7317 323.124 37.7077 323.121 37.684C323.643 35.5491 323.966 33.3634 324.085 31.1595C324.257 26.7129 323.201 22.2758 321.504 18.2248C319.997 14.6361 317.774 11.1046 314.371 9.64622C311.843 8.54529 309.01 8.72163 306.288 8.54053C300.18 8.13066 294.356 5.81444 288.549 3.70791C282.742 1.60139 276.767 -0.314499 270.655 0.052475C264.543 0.419449 258.254 3.5983 255.465 9.43175C254.581 11.2523 254.073 13.2778 253.017 14.9888C251.037 18.2153 247.493 19.8309 244.536 22.0566C241.58 24.2823 238.977 27.4421 237.907 31.2119C237.323 33.2429 237.241 35.4032 237.669 37.479C237.765 37.9478 237.889 38.4095 238.04 38.8611C238.459 40.1204 239.114 41.2736 239.962 42.2497C240.602 42.9711 241.338 43.5862 242.145 44.075C243.159 44.6811 244.244 45.1364 245.372 45.4285C245.332 45.5715 245.292 45.724 245.248 45.8718C245.177 46.1148 245.115 46.3484 245.049 46.6105C244.903 47.1967 244.766 47.7924 244.651 48.3929C244.647 48.4357 244.647 48.4788 244.651 48.5216C244.108 51.2324 243.836 53.998 243.838 56.7714C243.837 58.083 243.899 59.3937 244.024 60.6984C245.791 80.0384 260.596 95.2941 278.888 96.2854C279.516 96.3187 280.147 96.3378 280.788 96.3378C281.08 96.3378 281.367 96.3378 281.672 96.3378C281.959 96.7477 282.242 97.1671 282.512 97.5769C282.781 97.9868 283.029 98.4062 283.263 98.8161L282.622 98.1012L281.982 97.4673C281.808 97.7244 281.614 97.9652 281.403 98.187C280.985 98.0284 280.558 97.8979 280.125 97.7961C278.291 97.3577 275.498 97.1956 271.821 98.3919C268.441 99.4833 264.309 101.728 259.474 105.993L235.914 121.244L223.169 129.604L218.577 141.709C218.577 141.709 215.125 156.093 211.285 172.573C211.135 172.621 210.989 172.668 210.843 172.725C210.532 172.687 210.219 172.668 209.906 172.668C207.678 172.663 205.534 173.588 203.926 175.251C202.317 176.914 201.369 179.184 201.28 181.585C193.643 191.594 193.21 201.602 195.004 206.196C195.167 206.627 195.371 207.037 195.614 207.421C196.79 209.251 198.986 213.97 201.213 218.998C201.156 219.412 201.12 219.76 201.103 220.022C201.099 220.108 201.099 220.194 201.103 220.28C201.103 220.28 202.429 241.874 198.009 248.065C197.041 249.413 197.187 251.186 198.009 253.15C200.97 260.213 212.677 269.645 212.677 269.645C212.677 269.645 226.717 269.564 234.54 268.644C234.518 269.492 234.5 270.336 234.482 271.16C234.305 279.491 234.305 286.473 234.305 286.473L234.014 295.209C234.014 295.209 231.362 313.62 230.036 318.695C229.201 321.879 230.165 351.356 231.004 373.026H369.339C370.965 360.206 368.672 321.255 368.672 321.255C368.672 321.255 366.493 311.184 366.413 302.405C366.409 302.396 366.407 302.385 366.407 302.374C366.407 302.364 366.409 302.353 366.413 302.343C366.413 301.576 366.413 300.828 366.44 300.094L367.443 300.056L369.246 299.989H369.41C369.41 299.989 369.454 299.808 369.556 299.513C369.794 298.776 370.119 298.077 370.523 297.43C371.292 296.205 372.494 295.004 374.302 294.923C375.301 294.88 376.848 294.008 378.593 292.721C378.605 292.724 378.617 292.724 378.629 292.721C383.326 289.294 389.535 282.97 391.043 281.931C393.115 280.501 403.041 270.97 403.041 270.97C403.041 270.97 404.522 268.949 406.099 266.513L406.157 266.428C408.119 263.378 410.205 259.732 409.692 258.583C408.808 256.524 410.284 251.601 410.284 251.601C414.894 242.503 410.01 230.445 407.933 227.428ZM322.476 80.8391C322.518 80.9814 322.545 81.1286 322.556 81.2776C322.445 81.1203 322.335 80.9535 322.224 80.801L322.118 80.6485L322.043 80.5341L322.211 80.2863C322.211 80.2863 322.211 80.2863 322.211 80.3196C322.328 80.4741 322.417 80.6501 322.476 80.8391ZM320.991 76.6165C320.51 76.7214 320.129 76.8167 319.882 76.8882C319.568 76.2877 319.268 75.6872 318.998 75.0771C319.707 75.5204 320.374 76.0359 320.991 76.6165ZM320.16 77.3695C320.159 77.3601 320.159 77.3504 320.16 77.3409L320.196 77.3695C320.377 77.4982 320.554 77.6221 320.717 77.7508C320.863 77.8652 320.996 77.9748 321.128 78.0892C321.04 78.256 320.943 78.4276 320.845 78.5658C320.691 78.3036 320.545 78.0511 320.403 77.7889C320.315 77.6841 320.236 77.5411 320.16 77.3695ZM317.509 71.4884C318.363 71.3976 319.223 71.3976 320.076 71.4884C320.196 71.4884 320.302 71.5123 320.408 71.5313C320.647 71.5713 320.883 71.6367 321.111 71.7267C321.633 72.5147 321.954 73.4366 322.043 74.4004L321.804 74.4385L321.57 74.4862C321.128 74.5672 320.686 74.6482 320.342 74.7245L319.9 74.8246C319.312 74.9628 318.972 75.0676 318.958 75.0724C318.901 74.9437 318.843 74.8246 318.782 74.7006C318.684 74.4957 318.583 74.286 318.494 74.0811C318.406 73.8761 318.291 73.6426 318.198 73.4281C318.136 73.3138 318.092 73.1994 318.043 73.0945C318.043 73.0469 317.999 73.0088 317.982 72.9611C317.956 72.9105 317.934 72.858 317.915 72.8038C317.646 72.2128 317.398 71.6219 317.16 71.0404C317.133 70.9832 317.111 70.9213 317.089 70.8641L317.425 70.8403V70.9642L317.509 71.4884ZM212.067 367.136C212.032 360.039 211.555 352.361 210.229 345.155C209.663 342.091 209.08 339.027 208.488 336.014C208.337 335.261 208.191 334.518 208.046 333.775L206.684 333.97H206.561C202.848 315.092 198.968 298.459 198.968 298.459C198.968 298.459 191.261 266.723 192.154 264.193C192.268 263.864 192.123 262.977 191.796 261.676C189.931 254.461 182.144 234.577 179.421 227.781C179.421 227.752 179.399 227.719 179.39 227.695C178.949 226.556 178.63 225.789 178.533 225.565L179.174 215.423L179.209 214.813L179.293 213.517L179.258 213.483L179.293 212.883C179.293 212.883 172.567 206.935 161.174 202.641C160.732 202.469 160.263 202.303 159.799 202.141C160.37 198.037 161.125 193.405 162.111 188.891C162.204 188.439 162.305 188 162.411 187.557C162.504 187.114 162.61 186.685 162.716 186.251C162.884 185.546 163.065 184.85 163.251 184.164C163.865 183.954 164.471 183.72 165.067 183.473L165.297 183.377C172.647 180.293 178.711 174.441 182.368 166.906C186.024 159.37 187.025 150.661 185.184 142.391C184.135 137.7 182.197 133.295 179.492 129.451C179.289 129.156 179.072 128.86 178.856 128.57C178.639 128.279 178.378 127.955 178.135 127.659C179.413 124.528 180.92 121.549 181.043 118.504C181.065 118.118 181.065 117.732 181.043 117.346V117.298C180.88 115.339 180.075 113.357 178.202 111.274C175.466 108.219 171.573 106.67 167.679 105.927C163.786 105.183 159.817 105.164 155.902 104.664C149.41 103.825 143.085 101.666 136.593 101.004C128.597 100.205 120.546 101.684 113.246 105.293C108.416 107.676 103.523 111.841 103.232 117.556C102.993 122.279 106.042 126.806 105.273 131.472C104.509 136.057 100.178 139.665 100.558 144.302C100.704 146.113 101.566 147.733 102.644 149.177C103.015 149.654 103.408 150.13 103.815 150.607C105.388 152.404 107.121 154.129 108 156.393C108.035 156.488 108.071 156.583 108.102 156.679C108.849 158.914 108.513 161.74 106.665 163.022C106.676 163.031 106.683 163.042 106.688 163.056C106.714 163.094 106.741 163.122 106.763 163.16C106.765 163.153 106.765 163.144 106.763 163.137C107.418 163.974 108.301 164.568 109.286 164.833L109.662 164.957C109.357 165.315 109.07 165.686 108.778 166.077L108.588 166.349C108.101 167.055 107.658 167.795 107.262 168.565C107.037 168.994 106.82 169.423 106.639 169.852C106.033 171.159 105.595 172.549 105.335 173.984C104.862 177.139 105.53 180.427 104.814 183.515C103.93 187.328 101.132 190.254 99.5547 193.796C96.5672 200.468 98.2599 208.298 98.8609 215.666C99.6785 225.675 98.3527 235.726 97.0313 245.667C96.3301 250.954 95.6289 256.246 94.9277 261.543C93.1599 274.836 91.3922 288.13 89.6244 301.424C88.9792 306.294 88.2147 311.432 85.2051 315.192H85.236C85.236 315.192 85.236 315.221 85.2051 315.23C86.1085 315.656 87.0694 315.923 88.0511 316.022C91.98 316.446 96.143 314.396 99.6785 312.156C102.478 310.412 105.13 308.404 107.602 306.156C107.24 307.586 106.851 309.144 106.436 310.822C106.437 310.838 106.437 310.854 106.436 310.87C101.446 331.363 93.4207 368.932 93.4207 368.932C93.4207 368.932 92.6915 370.567 91.7457 373.003H216.372C214.913 371.096 213.557 369.271 212.496 367.798L212.067 367.136ZM119.791 177.644C119.822 177.587 119.844 177.534 119.875 177.482C119.875 177.634 119.875 177.782 119.875 177.925C119.875 178.068 119.875 178.197 119.875 178.33C119.875 178.464 119.875 178.449 119.875 178.516C119.875 178.516 119.875 178.583 119.875 178.516C119.875 178.711 119.835 178.907 119.804 179.102C119.804 179.102 119.804 179.126 119.804 179.145L120.246 179.322L120.759 179.55C123.788 180.84 126.855 182.008 129.96 183.053C130.278 183.163 130.601 183.268 130.923 183.368L130.99 183.959C131.069 184.564 131.144 185.179 131.215 185.794C131.215 185.794 131.215 185.822 131.215 185.841C131.414 187.543 131.608 189.239 131.781 190.898C131.781 190.898 123.667 187.562 123.768 192.628C123.764 192.718 123.764 192.809 123.768 192.9C123.759 193.02 123.759 193.141 123.768 193.262C123.844 197.208 124.988 199.548 125.218 200.749C125.204 200.799 125.18 200.844 125.147 200.882C124.951 201.342 124.884 201.854 124.953 202.355C124.945 203.208 125.007 204.059 125.138 204.9C124.9 205.057 124.666 205.215 124.431 205.377C124.255 205.496 124.087 205.629 123.914 205.763C122.83 201.707 121.412 197.764 119.676 193.981C118.461 191.284 117.095 188.472 117.108 185.512C117.108 185.322 117.108 185.126 117.131 184.931C117.18 184.073 117.331 183.226 117.581 182.41C117.683 182.1 117.793 181.795 117.917 181.495C118.206 180.781 118.529 180.085 118.885 179.407C119.115 178.959 119.358 178.516 119.592 178.068C119.667 177.935 119.738 177.796 119.809 177.663L119.791 177.644ZM318.22 73.4281C318.158 73.3138 318.114 73.1994 318.066 73.0945C318.066 73.0469 318.021 73.0088 318.004 72.9611C317.907 73.0101 317.809 73.0531 317.708 73.0898C317.513 73.1708 317.314 73.247 317.111 73.309C316.908 73.371 316.824 73.4043 316.669 73.4424L316.276 73.5521L316.311 73.6378C316.475 73.5997 316.634 73.5664 316.797 73.5187L316.841 74.1097C317.027 74.1097 317.199 74.0811 317.367 74.0811H317.606C317.951 74.0811 318.251 74.0811 318.49 74.0811C318.397 73.8666 318.3 73.6426 318.22 73.4281Z" fill="url(#paint1_linear_704_2158)"/>
<path d="M221.657 143.43L219.006 144.693C219.006 144.693 201.722 217.105 201.722 222.958C201.722 228.81 238.371 261.376 238.371 261.376L244.09 219.751C244.09 219.751 235.879 124.294 221.657 143.43Z" fill="#E8F5FF"/>
<path d="M302.05 120.396L286.737 111.779C285.879 107.836 284.357 104.096 282.247 100.746C280.006 97.2576 277.028 93.8309 273.315 92.0437C263.933 87.5066 313.001 63.6914 313.001 63.6914C313.774 66.5523 314.684 69.3679 315.728 72.127C318.256 78.8565 322.45 87.559 327.855 90.0373C337.043 94.2551 302.05 120.396 302.05 120.396Z" fill="#FFC1C7"/>
<path opacity="0.1" d="M315.728 72.127C313.631 80.0789 309.271 87.1196 303.264 92.2548C297.256 97.39 289.905 100.36 282.247 100.746C280.006 97.2576 277.028 93.8309 273.315 92.0437C263.933 87.5066 313.001 63.6914 313.001 63.6914C313.774 66.5523 314.684 69.3679 315.728 72.127Z" fill="black"/>
<path d="M317.107 60.1027C317.109 67.9015 314.966 75.5257 310.949 82.011C306.933 88.4962 301.223 93.5513 294.542 96.5369C287.861 99.5224 280.51 100.304 273.417 98.7837C266.324 97.263 259.808 93.5081 254.695 87.9939C249.581 82.4797 246.098 75.4538 244.687 67.8049C243.276 60.156 244 52.2277 246.768 45.0226C249.536 37.8176 254.222 31.6595 260.236 27.3272C266.249 22.9949 273.318 20.6831 280.55 20.684C285.357 20.66 290.12 21.6632 294.565 23.6357C299.01 25.6081 303.049 28.5107 306.448 32.1757C309.847 35.8408 312.539 40.1958 314.368 44.9891C316.198 49.7825 317.129 54.9192 317.107 60.1027Z" fill="#FFC1C7"/>
<path d="M322.384 115.335L312.414 140.422L303.619 157.074H275.468L267.257 134.308L270.585 110.697H292.085L305.966 109.854L310.655 108.167L313.678 110.016L322.384 115.335Z" fill="#259F87"/>
<path opacity="0.1" d="M318.95 81.8924C318.95 81.8924 325.168 83.3221 319.6 88.2453C314.031 93.1685 294.82 108.824 294.82 108.824C294.82 108.824 301.569 115.306 300.172 122.898L322.53 109.458L326.507 87.9546C326.507 87.9546 326.953 81.492 318.95 81.8924Z" fill="black"/>
<path opacity="0.1" d="M299.217 108.824L284.996 111.355C284.996 111.355 287.93 123.055 286.463 126.377C286.419 126.48 286.382 126.587 286.352 126.696L280.55 143.611L284.898 156.893L299.951 134.756L294.82 126.377C294.82 126.377 300.242 118.628 303.469 115.94C306.695 113.252 299.217 108.824 299.217 108.824Z" fill="black"/>
<path d="M299.217 108.172L284.996 110.697C284.996 110.697 287.93 122.398 286.463 125.72C286.419 125.823 286.382 125.93 286.352 126.039L280.55 142.953L284.898 156.236L299.951 134.084L294.82 125.705C294.82 125.705 300.242 117.956 303.469 115.268C306.695 112.58 299.217 108.172 299.217 108.172Z" fill="#39DBBB"/>
<path d="M319.547 80.6293C319.547 80.6293 325.765 82.0591 320.192 86.9822C314.619 91.9054 294.82 108.824 294.82 108.824C294.82 108.824 302.152 114.043 300.76 121.63L323.117 108.195L327.095 86.6915C327.095 86.6915 327.537 80.229 319.547 80.6293Z" fill="#259F87"/>
<path opacity="0.1" d="M283.224 102.238C283.224 102.238 284.58 104.974 290.569 109.906C290.569 109.906 280.598 115.625 284.412 123.665L269.161 119.376L266.814 111.469L283.224 102.238Z" fill="black"/>
<path d="M282.636 101.609C282.636 101.609 283.993 104.344 289.981 109.277C289.981 109.277 280.011 114.968 283.825 123.031L268.578 118.742L266.231 110.84L282.636 101.609Z" fill="#259F87"/>
<path opacity="0.1" d="M322.384 115.335L312.414 140.422L303.637 157.074H275.468L267.257 134.308L270.58 110.697H276.56C276.462 116.207 278.327 122.679 278.208 125.086C278.005 129.041 283.679 150.383 283.679 150.383C283.679 150.383 295.554 129.67 300.243 127.826C303.191 126.668 309.435 117.031 313.673 110.016L322.384 115.335Z" fill="black"/>
<path d="M361.659 247.355L360.647 248.727C360.647 248.727 367.978 288.413 365.95 297.425C365.605 299.049 365.408 300.706 365.362 302.372V302.443C365.004 311.613 367.572 323.513 367.572 323.513C367.572 323.513 369.622 358.59 368.456 373.017H231.182C230.377 351.685 229.511 324.047 230.298 320.983C231.623 315.926 234.275 297.582 234.275 297.582L234.567 288.889C234.567 288.889 234.567 280.487 234.805 271.127C234.907 266.918 235.057 262.501 235.274 258.583C235.552 253.655 235.941 249.504 236.476 247.464C236.805 245.918 236.995 244.341 237.042 242.755C237.042 242.608 237.042 242.455 237.068 242.303C237.068 241.826 237.112 241.311 237.13 240.782C237.13 240.635 237.13 240.487 237.13 240.306C237.214 237.237 237.183 233.595 237.09 229.821C237.09 229.616 237.09 229.406 237.09 229.196C237.015 226.366 236.905 223.477 236.781 220.732C236.396 212.154 235.897 204.9 235.897 204.9L219.037 144.659L223.58 132.592L236.189 124.261L259.501 109.082C270.872 99.0018 278.358 100.212 281.213 101.318C281.49 101.42 281.762 101.539 282.026 101.675C282.115 101.723 282.185 101.761 282.252 101.804C282.342 101.851 282.43 101.905 282.512 101.966C281.731 102.372 281.051 102.975 280.532 103.725C279.948 104.578 279.531 105.551 279.308 106.584C279.159 107.225 279.054 107.876 278.995 108.534C278.937 109.225 278.915 109.94 278.915 110.659C278.947 112.237 279.072 113.812 279.291 115.373C279.291 115.401 279.291 115.439 279.291 115.478C279.436 116.593 279.618 117.684 279.794 118.709C279.792 118.726 279.792 118.744 279.794 118.761C279.998 119.957 280.201 121.063 280.338 122.016C280.365 122.188 280.387 122.345 280.409 122.493C280.506 123.123 280.552 123.761 280.546 124.399C280.596 125.941 280.788 127.474 281.12 128.975C281.235 129.604 281.368 130.276 281.514 130.976C281.712 131.929 281.929 132.968 282.163 134.026C282.291 134.608 282.428 135.208 282.57 135.804C282.623 136.042 282.68 136.281 282.733 136.524L282.822 136.9C283.763 140.937 284.784 144.955 285.411 147.385C285.783 148.815 286.017 149.697 286.017 149.697C286.017 149.697 292.673 138.092 297.985 131.486C298.064 131.391 298.135 131.3 298.21 131.214C298.736 130.562 299.253 129.966 299.748 129.442C300.831 128.279 301.803 127.449 302.585 127.144C302.752 127.078 302.913 126.997 303.067 126.901C305.241 125.572 308.75 120.744 312.034 115.687C312.356 115.211 312.67 114.691 312.988 114.2C313.717 113.066 314.425 111.927 315.092 110.836C315.605 110.002 316.095 109.191 316.559 108.419C318.769 104.711 320.324 101.947 320.324 101.947L323.391 101.799L323.926 101.771H324.284L338.21 101.075C338.21 101.075 338.811 101.185 339.801 101.399C339.854 101.399 339.907 101.399 339.964 101.437C344.905 102.495 358.631 105.846 359.471 110.492C360.496 116.183 382.637 123.775 382.637 123.775C382.929 127.588 388.352 130.099 388.352 130.099C388.352 130.099 396.563 153.5 394.366 162.669C392.196 171.725 400.014 194.124 400.222 194.753L398.724 196.793L361.659 247.355Z" fill="#E8F5FF"/>
<path opacity="0.1" d="M318.945 80.229C318.945 80.229 332.499 76.0827 335.579 84.6184C338.66 93.1541 345.549 127.626 345.549 127.626C345.549 127.626 327.66 131.262 322.971 127.626C320.22 125.468 316.816 124.508 313.438 124.938L303.322 132.368L300.335 131.415C300.335 131.415 316.519 105.469 320.036 96.6523C323.554 87.8354 324.743 83.894 318.945 80.229Z" fill="black"/>
<path d="M318.358 78.3226C318.358 78.3226 331.921 74.1763 335.014 82.712C338.108 91.2478 344.985 125.719 344.985 125.719C344.985 125.719 327.099 129.356 322.406 125.719C319.657 123.561 316.254 122.601 312.878 123.031L302.753 130.462L299.766 129.508C299.766 129.508 315.949 103.563 319.467 94.7459C322.985 85.929 324.156 81.9972 318.358 78.3226Z" fill="#E8F5FF"/>
<path opacity="0.1" d="M227.376 215.843C227.376 215.843 237.492 218.531 239.401 224.698C241.31 230.865 231.923 231.022 231.923 231.022C231.923 231.022 226.205 220.113 227.376 215.843Z" fill="black"/>
<path opacity="0.1" d="M265.056 261.376C265.056 261.376 240.281 316.084 246 321.302C251.718 326.521 265.056 261.376 265.056 261.376Z" fill="black"/>
<path opacity="0.1" d="M299.217 221.061C299.217 221.061 319.011 274.201 315.051 282.408C311.092 290.615 323.554 282.408 323.554 282.408L299.217 221.061Z" fill="black"/>
<path d="M326.781 273.553C326.781 273.553 259.924 277.032 279.427 299.484C298.93 321.936 338.951 300.437 338.951 300.437L326.781 273.553Z" fill="#FFC1C7"/>
<path opacity="0.1" d="M317.107 60.1026C317.113 65.2737 316.171 70.3951 314.336 75.1724C313.721 75.2486 313.107 75.2963 312.515 75.3249C311.631 73.2327 312.104 70.8163 312.122 68.5144C312.139 66.2125 311.353 63.5055 309.298 62.8859C305.201 61.642 302.372 69.9013 298.333 68.4096C295.24 67.2753 296.048 62.2139 294.267 59.2924C292.858 56.981 290.034 56.328 287.837 54.8792C283.166 51.7861 283.307 46.8391 281.137 42.159C278.866 37.2549 274.066 38.7038 269.899 41.5967C266.735 43.7985 264.004 46.7486 260.618 48.5024C257.688 50.0275 254.396 50.5804 251.148 50.6614C249.148 50.745 247.147 50.517 245.208 49.9846C247.489 40.7359 252.812 32.6977 260.183 27.3689C267.555 22.0402 276.472 19.7847 285.272 21.0231C294.072 22.2616 302.154 26.9094 308.01 34.0998C313.867 41.2902 317.098 50.5323 317.102 60.1026H317.107Z" fill="black"/>
<path d="M269.912 40.3337C266.744 42.5356 264.017 45.4809 260.632 47.2443C257.702 48.7646 254.409 49.3174 251.161 49.3984C247.183 49.4938 242.901 48.7407 240.183 45.6429C237.686 42.7834 237.09 38.3845 238.146 34.6337C239.202 30.883 241.734 27.7708 244.709 25.5166C247.683 23.2623 251.134 21.7038 253.105 18.4773C254.148 16.7711 254.652 14.7599 255.518 12.9441C258.289 7.13452 264.521 3.98903 270.544 3.59822C276.568 3.20742 282.538 5.14237 288.275 7.23936C294.011 9.33636 299.792 11.643 305.846 12.0767C308.542 12.2578 311.344 12.0767 313.845 13.1777C317.208 14.6503 319.414 18.1723 320.916 21.7563C322.6 25.7977 323.647 30.211 323.47 34.6242C323.099 44.0463 317.328 53.2922 319.864 62.3188C320.536 64.7255 321.796 67.1943 321.124 69.6011C320.143 73.1135 315.94 73.9142 312.541 74.081C311.658 71.9888 312.13 69.5677 312.148 67.2705C312.166 64.9734 311.379 62.2616 309.329 61.642C305.227 60.4076 302.399 68.6526 298.369 67.1657C295.297 66.0266 296.093 60.97 294.307 58.0485C292.897 55.7323 290.069 55.0841 287.877 53.6353C283.206 50.5423 283.347 45.5953 281.177 40.9152C278.888 35.9872 274.084 37.4361 269.912 40.3337Z" fill="#52525B"/>
<path d="M205.084 221.69L201.712 222.958C201.712 222.958 203.038 244.462 198.619 250.629C194.2 256.796 213.132 272.128 213.132 272.128C213.132 272.128 239.083 271.97 239.816 269.745C240.55 267.519 238.49 229.902 238.49 229.902C238.49 229.902 224.561 224.049 225.732 214.723C225.732 214.723 221.48 236.698 215.178 235.75C208.876 234.801 201.721 229.125 205.084 221.69Z" fill="#E8F5FF"/>
<path opacity="0.1" d="M216.332 242.403C221.245 242.403 225.228 238.474 225.228 233.629C225.228 228.783 221.245 224.855 216.332 224.855C211.419 224.855 207.436 228.783 207.436 233.629C207.436 238.474 211.419 242.403 216.332 242.403Z" fill="black"/>
<path d="M226.059 222.324C226.059 222.324 224.291 164.142 208.903 177.105C193.515 190.068 193.364 205.572 196.294 210.152C199.225 214.732 208.62 237.661 208.62 237.661C210.09 238.579 211.74 239.109 213.437 239.207C215.133 239.305 216.826 238.968 218.379 238.224C219.931 237.48 221.298 236.35 222.367 234.927C223.436 233.504 224.177 231.827 224.53 230.035L226.059 222.324Z" fill="#FFC1C7"/>
<path opacity="0.1" d="M322.052 74.9484C321.98 74.6928 321.842 74.4646 321.654 74.2907C320.894 73.5425 319.259 73.2803 316.793 73.5091L316.895 74.7673C320.183 74.4623 320.832 75.1676 320.916 75.2868V75.4059L321.018 75.5632C321.428 76.1574 321.718 76.8373 321.871 77.5595C322.023 78.2817 322.033 79.0303 321.902 79.7572C321.181 83.6414 316.758 86.7344 316.714 86.7678L316.607 86.8345L316.541 86.9441C314.632 89.9991 303.836 98.6206 301.012 100.851L300.764 100.546C299.5 101.728 288.39 112.218 287.789 116.235C287.4 118.756 284.766 119.733 283.811 120.005C282.804 119.181 279.533 116.374 277.832 113.228C276.237 110.268 282.658 104.492 283.224 102.238L282.34 101.261C282.247 101.623 274 109.935 276.294 114.181C278.132 117.589 281.491 120.506 282.667 121.468C282.291 125.148 279.953 146.751 276.36 151.87C271.897 158.232 268.145 190.297 268.56 201.492C268.927 211.439 266.518 230.226 258.475 238.295C257.083 239.753 255.403 240.853 253.561 241.513C251.719 242.173 249.763 242.376 247.838 242.107H247.741H247.643C247.528 242.107 235.861 243.394 226.059 234.482C218.038 227.204 213.495 215.328 212.549 199.171H212.355L212.275 194.467C214.45 194.101 216.409 192.841 217.739 190.95C219.07 189.059 219.67 186.686 219.412 184.328C219.154 181.971 218.059 179.813 216.357 178.308C214.655 176.803 212.478 176.068 210.284 176.258C208.09 176.447 206.049 177.547 204.591 179.325C203.133 181.103 202.37 183.421 202.464 185.793C202.557 188.165 203.5 190.405 205.093 192.043C206.686 193.681 208.806 194.589 211.007 194.577H211.104L211.184 199.252L210.795 199.281C211.767 215.962 216.54 228.301 224.937 235.921C231.319 241.624 239.471 244.502 247.745 243.971C248.332 244.04 248.922 244.075 249.513 244.076C253.305 244.097 256.954 242.514 259.677 239.667C268.149 231.16 270.726 211.682 270.323 201.397C269.882 189.535 273.819 158.623 277.77 152.995C281.641 147.471 283.988 125.948 284.399 121.778C285.8 121.354 288.969 120.015 289.508 116.536C289.897 114.019 297.317 106.265 301.882 101.971L301.745 101.799C304.202 99.8645 311.843 93.7641 315.631 89.8466C316.806 88.6313 317.973 87.416 319.193 86.2579C320.66 84.8567 322.525 82.631 323.016 80.0002C323.183 79.1318 323.184 78.2357 323.018 77.367C322.852 76.4982 322.524 75.6752 322.052 74.9484Z" fill="black"/>
<path d="M282.516 121.168C282.331 121.03 277.929 117.632 275.724 113.543C273.434 109.296 281.681 100.989 281.769 100.627L282.653 101.604C282.092 103.854 275.671 109.635 277.266 112.589C279.277 116.321 283.511 119.586 283.555 119.619L282.516 121.168Z" fill="#353146"/>
<path d="M300.436 101.776L299.747 100.751C299.888 100.641 313.77 89.8133 315.957 86.3103L316.028 86.2055L316.13 86.134C316.174 86.1007 320.598 83.0123 321.318 79.1234C321.451 78.3973 321.441 77.6492 321.289 76.9276C321.136 76.2059 320.845 75.5268 320.434 74.9342L320.332 74.7721V74.6577C320.244 74.5338 319.594 73.8332 316.306 74.1383L316.205 72.8753C318.675 72.6465 320.306 72.9087 321.066 73.6569C321.255 73.8325 321.395 74.0621 321.468 74.3194C321.946 75.044 322.281 75.8665 322.453 76.7362C322.625 77.6058 322.63 78.5042 322.467 79.376C321.976 82.0115 320.116 84.2372 318.644 85.6336C317.429 86.7917 316.258 88.0165 315.087 89.2223C310.645 93.8119 300.923 101.399 300.436 101.776Z" fill="#E8F5FF"/>
<path d="M211.705 192.808L210.534 192.831L210.665 200.508L211.836 200.485L211.705 192.808Z" fill="#E8F5FF"/>
<path d="M210.436 193.972C215.159 193.972 218.988 189.843 218.988 184.75C218.988 179.657 215.159 175.528 210.436 175.528C205.713 175.528 201.885 179.657 201.885 184.75C201.885 189.843 205.713 193.972 210.436 193.972Z" fill="#259F87"/>
<path d="M210.437 192.409C214.359 192.409 217.539 188.98 217.539 184.75C217.539 180.52 214.359 177.091 210.437 177.091C206.515 177.091 203.335 180.52 203.335 184.75C203.335 188.98 206.515 192.409 210.437 192.409Z" fill="#E8F5FF"/>
<path d="M248.956 243.461C248.366 243.462 247.776 243.428 247.189 243.361C238.915 243.886 230.765 241.01 224.38 235.311C215.983 227.686 211.219 215.361 210.238 198.666L212.006 198.547C212.952 214.703 217.495 226.585 225.52 233.857C235.323 242.746 246.985 241.483 247.1 241.483H247.197H247.295C249.22 241.751 251.177 241.547 253.019 240.887C254.862 240.227 256.542 239.127 257.936 237.67C265.975 229.602 268.384 210.814 268.017 200.868C267.575 189.663 271.327 157.598 275.795 151.241C279.706 145.669 282.132 120.558 282.159 120.305L282.225 119.59L282.879 119.467C282.919 119.467 286.737 118.685 287.215 115.606C287.833 111.593 298.926 101.104 300.186 99.9169L301.339 101.347C296.756 105.636 289.336 113.395 288.965 115.916C288.426 119.405 285.257 120.739 283.86 121.158C283.418 125.333 281.089 146.851 277.231 152.375C273.28 158.004 269.343 188.915 269.785 200.777C270.165 211.062 267.615 230.545 259.143 239.048C256.415 241.902 252.757 243.486 248.956 243.461Z" fill="#353146"/>
<g opacity="0.1">
<path d="M320.872 48.8361C321.597 45.948 322.472 43.0408 323.082 40.1145C322.353 43.0551 321.473 45.948 320.872 48.8361Z" fill="black"/>
<path d="M313.478 71.5313C312.594 69.4391 313.067 67.018 313.085 64.7209C313.102 62.4237 312.316 59.7357 310.265 59.0923C306.164 57.858 303.336 66.1077 299.305 64.616C296.212 63.477 297.029 58.4203 295.244 55.4989C293.834 53.1826 291.01 52.5345 288.818 51.0856C284.142 47.9926 284.284 43.0456 282.118 38.3655C279.842 33.4566 275.047 34.9054 270.875 37.8031C267.707 40.0049 264.98 42.955 261.595 44.7136C258.665 46.234 255.372 46.7868 252.124 46.8678C248.169 46.9679 243.864 46.2101 241.146 43.1123C239.052 40.7294 238.296 37.236 238.729 33.9618C238.654 34.1858 238.588 34.4098 238.521 34.6338C237.461 38.3845 238.079 42.793 240.559 45.643C243.277 48.7408 247.581 49.4938 251.536 49.3985C254.789 49.3175 258.077 48.7646 261.011 47.2443C264.405 45.481 267.132 42.5356 270.292 40.3338C274.464 37.4361 279.263 35.9873 281.535 40.8962C283.7 45.5763 283.563 50.5233 288.235 53.6163C290.444 55.0461 293.251 55.7133 294.665 58.0295C296.433 60.9606 295.65 66.0076 298.726 67.1467C302.752 68.6337 305.581 60.3887 309.682 61.623C311.732 62.2426 312.523 64.9592 312.501 67.2515C312.479 69.5439 312.02 71.9698 312.895 74.062C316.293 73.8952 320.496 73.1088 321.482 69.5821C321.617 69.0759 321.68 68.5503 321.667 68.0236C320.231 70.6973 316.536 71.3836 313.478 71.5313Z" fill="black"/>
</g>
<path opacity="0.1" d="M393.349 188.963L398.48 194.815C398.48 194.815 402.586 227.066 404.636 230.083C406.687 233.1 411.531 245.1 406.983 254.113C406.983 254.113 405.516 259.017 406.395 261.071C407.275 263.125 399.802 273.405 399.802 273.405C399.802 273.405 389.977 282.889 387.922 284.314C385.867 285.739 375.022 297.12 371.359 297.277C367.695 297.435 366.497 302.339 366.497 302.339L345.824 303.13C345.824 303.13 334.404 302.486 331.92 304.226C331.92 304.226 333.246 285.41 320.487 273.076L336.759 266.752C336.759 266.752 342.92 263.892 344.825 260.904C346.023 259.072 347.723 257.691 349.686 256.953C349.686 256.953 354.229 253.474 354.375 251.577C354.521 249.68 359.93 247.355 359.93 247.355L356.867 219.164L358.481 172.363C358.481 172.363 363.611 133.15 374.461 135.366C385.31 137.582 393.349 188.963 393.349 188.963Z" fill="black"/>
<path d="M395.117 188.963L400.248 194.815C400.248 194.815 404.353 227.066 406.404 230.083C408.455 233.1 413.298 245.1 408.751 254.113C408.751 254.113 407.288 259.017 408.167 261.071C409.047 263.125 401.569 273.405 401.569 273.405C401.569 273.405 391.745 282.889 389.69 284.314C387.635 285.739 376.79 297.12 373.126 297.277C369.462 297.435 368.265 302.339 368.265 302.339L347.591 303.13C347.591 303.13 336.163 302.486 333.688 304.226C333.688 304.226 335.014 285.41 322.255 273.076L338.527 266.752C338.527 266.752 344.688 263.892 346.592 260.904C347.791 259.072 349.49 257.691 351.454 256.953C351.454 256.953 355.997 253.474 356.143 251.577C356.288 249.68 361.698 247.355 361.698 247.355L358.635 219.164L360.248 172.363C360.248 172.363 365.379 133.15 376.229 135.366C387.078 137.582 395.117 188.963 395.117 188.963Z" fill="#E8F5FF"/>
<path opacity="0.1" d="M376.043 236.24C376.043 236.24 391.144 231.951 395.104 237.194C399.063 242.436 376.043 236.24 376.043 236.24Z" fill="black"/>
<path opacity="0.1" d="M372.525 243.432C377.656 247.307 393.491 247.464 393.491 247.464L372.525 243.432Z" fill="black"/>
<path opacity="0.1" d="M380.295 262.801C380.737 262.958 391.18 274.978 395.564 271.341C399.948 267.705 380.295 262.801 380.295 262.801Z" fill="black"/>
<path opacity="0.1" d="M239.653 161.926C239.653 161.926 242.72 184.697 241.209 193.972C239.698 203.246 245.213 214.737 245.213 214.737L239.653 161.926Z" fill="black"/>
<path d="M171.754 171.186C168.219 174.174 165.638 181.247 163.768 189.02C160.507 202.579 159.442 218.302 159.442 218.302C159.442 218.302 131.29 211.343 133.341 208.184C134.632 206.196 132.899 191.222 131.454 180.365C130.592 173.95 129.823 168.97 129.823 168.97C129.823 168.97 181.433 162.96 171.754 171.186Z" fill="#FFDECC"/>
<path opacity="0.1" d="M171.754 170.552C168.219 173.545 165.638 180.613 163.768 188.386C158.16 190.223 152.194 190.389 146.505 188.866C140.816 187.343 135.615 184.188 131.454 179.736C130.592 173.316 129.823 168.336 129.823 168.336C129.823 168.336 181.433 162.331 171.754 170.552Z" fill="black"/>
<path d="M186.886 153.519C186.889 161.808 184.173 169.832 179.218 176.169C174.263 182.506 167.388 186.748 159.812 188.145C152.235 189.542 144.444 188.003 137.818 183.801C131.192 179.599 126.159 173.005 123.608 165.185C121.057 157.365 121.154 148.825 123.881 141.074C126.608 133.324 131.789 126.864 138.508 122.838C145.227 118.811 153.05 117.478 160.593 119.074C168.136 120.67 174.912 125.092 179.723 131.558C184.358 137.786 186.885 145.533 186.886 153.519Z" fill="#FFDECC"/>
<path opacity="0.1" d="M212.553 373.017H203.273L202.49 355.34L201.673 337.044C201.673 337.044 203.781 336.705 207.14 336.2L208.496 336.005H208.607C209.34 339.718 210.065 343.53 210.763 347.338C211.926 354.098 212.531 360.956 212.571 367.832C212.571 368.308 212.571 368.785 212.571 369.233C212.597 370.505 212.571 371.778 212.553 373.017Z" fill="black"/>
<path d="M210.773 373.017H94.3848C94.8886 371.783 95.2244 371.034 95.2244 371.034C95.2244 371.034 104.536 327.102 109.269 308.515C109.271 308.499 109.271 308.483 109.269 308.468C109.861 305.943 110.575 303.453 111.408 301.009C111.462 300.843 111.532 300.683 111.616 300.532C113.958 296.424 116.893 291.997 112.787 285.672C108.681 279.348 110.135 251.52 110.135 251.52C110.135 251.52 115.12 227.8 120.397 215.151C121.198 213.192 122.334 211.414 123.747 209.909C124.206 209.424 124.697 208.975 125.214 208.565C125.608 208.246 126.018 207.952 126.443 207.683L126.527 207.626C128.743 206.271 131.205 205.447 133.744 205.21C135.547 205.007 137.367 205.061 139.157 205.372C147.713 206.725 154.563 208.989 160.008 211.567C174.764 218.559 179.232 227.929 179.32 228.124L179.356 228.205C179.948 229.697 188.61 251.506 191.73 261.681C192.539 264.331 192.981 266.194 192.804 266.704C191.92 269.23 199.548 300.852 199.548 300.852C199.548 300.852 203.083 316.103 206.619 333.979C206.773 334.723 206.919 335.466 207.061 336.219C207.693 339.465 208.32 342.773 208.926 346.075C210.099 352.882 210.704 359.788 210.733 366.712C210.798 368.869 210.811 370.971 210.773 373.017Z" fill="#FF987E"/>
<path opacity="0.1" d="M133.049 194.334C133.049 194.334 125.019 190.998 125.116 196.059C125.213 201.121 127.074 203.542 126.486 204.28C125.898 205.019 126.778 209.447 126.778 209.447C126.778 209.447 137.627 209.447 142.612 211.868C147.597 214.289 165.973 219.14 168.32 220.618C170.666 222.095 179.368 228.72 179.368 228.72L180.15 216.176C180.15 216.176 171.157 208.165 156.401 204.056C141.645 199.948 133.049 194.334 133.049 194.334Z" fill="black"/>
<path d="M133.049 193.7C133.049 193.7 125.019 190.364 125.116 195.425C125.213 200.487 127.074 202.908 126.486 203.647C125.898 204.385 126.778 208.813 126.778 208.813C126.778 208.813 137.627 208.813 142.612 211.239C147.597 213.664 165.973 218.511 168.32 219.984C170.666 221.457 179.368 228.086 179.368 228.086L180.159 215.58C180.159 215.58 171.166 207.569 156.41 203.461C141.653 199.352 133.049 193.7 133.049 193.7Z" fill="#FF987E"/>
<path opacity="0.1" d="M157.289 223.887C157.289 223.887 172.633 241.802 171.851 246.764C171.069 251.725 157.289 223.887 157.289 223.887Z" fill="black"/>
<path opacity="0.1" d="M132.364 288.603C132.364 288.603 121.117 299.779 117.802 300.413C114.488 301.047 120.343 303.154 124.153 301.471C127.962 299.789 136.085 295.361 136.085 295.361L132.364 288.603Z" fill="black"/>
<path d="M215.342 373.017H189.113C185.445 369.585 181.976 366.407 179.766 364.495C176.231 361.436 173.681 356.932 172.055 353.31C171.688 352.485 171.37 351.713 171.1 351.013C170.617 349.806 170.192 348.573 169.827 347.319L189.25 334.88C190.324 335.865 191.332 336.928 192.269 338.064L192.503 338.354C193.581 339.727 194.531 341.285 194.615 342.563C194.713 344.05 198.549 349.802 202.469 355.326C206.446 360.945 210.521 366.316 210.79 366.678C210.79 366.678 211.462 367.665 212.558 369.18C213.331 370.276 214.286 371.592 215.342 373.017Z" fill="#FFDECC"/>
<path opacity="0.1" d="M179.722 131.558C178.79 133.826 177.955 136.181 177.831 138.707C177.482 145.998 178.048 162.302 170.561 165.963C166.853 167.764 162.885 163.808 158.819 163.713C155.893 163.646 153.211 165.648 151.425 168.15C149.64 170.652 148.531 173.621 147.236 176.452C146.057 179.022 144.699 181.491 143.174 183.84C142.719 184.558 142.216 185.241 141.672 185.884C137.107 183.807 133.042 180.633 129.787 176.605C126.531 172.577 124.171 167.801 122.887 162.64C121.603 157.48 121.428 152.071 122.375 146.826C123.323 141.582 125.368 136.64 128.355 132.377C131.342 128.114 135.192 124.642 139.611 122.227C144.031 119.811 148.903 118.515 153.857 118.438C158.812 118.361 163.717 119.504 168.199 121.781C172.681 124.058 176.623 127.408 179.722 131.577V131.558Z" fill="black"/>
<path d="M177.243 137.42C176.89 144.712 177.46 161.016 169.969 164.671C166.261 166.473 162.293 162.522 158.227 162.426C155.301 162.355 152.623 164.361 150.833 166.859C149.043 169.356 147.943 172.33 146.644 175.166C145.465 177.735 144.107 180.204 142.582 182.553C141.672 183.944 140.664 185.341 139.263 186.122C136.824 187.495 133.867 186.723 131.251 185.841C127.857 184.688 124.513 183.388 121.219 181.943C121.295 181.406 121.333 180.865 121.334 180.322C121.237 180.523 121.131 180.708 121.025 180.909L120.817 181.299C120.441 182.014 120.074 182.729 119.739 183.463C119.61 183.744 119.487 184.035 119.376 184.326C118.932 185.408 118.653 186.56 118.55 187.738C118.324 190.917 119.778 193.934 121.069 196.793C126.032 207.855 129.099 220.79 125.364 232.395C123.747 237.442 120.945 241.926 118.899 246.802C115.322 255.437 114.269 265.042 115.88 274.339C116.901 280.115 118.948 285.834 118.444 291.692C117.56 301.772 109.499 309.273 101.425 314.43C97.0629 317.204 91.7243 319.672 87.0928 317.48C90.0449 313.763 90.805 308.62 91.4414 303.768C93.1827 290.535 94.9283 277.296 96.6784 264.05C97.3766 258.778 98.0734 253.507 98.7687 248.236C100.068 238.333 101.385 228.32 100.572 218.354C99.9796 211.01 98.3091 203.213 101.261 196.565C102.821 193.043 105.601 190.126 106.467 186.332C107.179 183.249 106.516 179.97 106.984 176.829C107.241 175.4 107.675 174.015 108.275 172.711C109.039 170.942 110.036 169.302 111.236 167.84C110.051 167.469 108.947 166.959 108.275 165.891C110.175 164.557 110.462 161.55 109.601 159.29C108.739 157.031 107.015 155.311 105.464 153.529C103.913 151.746 102.419 149.668 102.225 147.238C101.849 142.61 106.136 139.026 106.892 134.46C107.656 129.813 104.633 125.295 104.876 120.591C105.159 114.906 110.003 110.774 114.784 108.376C122 104.774 129.971 103.294 137.889 104.087C144.332 104.745 150.568 106.894 156.994 107.728C160.87 108.205 164.798 108.253 168.648 108.986C172.497 109.72 176.355 111.269 179.064 114.315C186.206 122.345 177.65 128.956 177.243 137.42Z" fill="#52525B"/>
<path opacity="0.1" d="M171.268 353.315C169.014 352.261 164.913 352.89 157.873 350.579C150.833 348.268 149.476 337.821 149.476 337.821V337.787C149.392 337.549 148.738 335.995 144.31 330.553C139.418 324.543 128.842 294.189 128.842 294.189C128.842 294.189 119.465 283.327 119.761 279.324C120.057 275.321 118.095 264.669 118.289 252.754C118.483 240.84 139.4 232.938 139.4 232.938C179.674 225.241 170.19 275.311 169.116 279.105C168.042 282.899 173.615 293.145 173.615 293.145C172.828 297.606 176.841 304.512 176.841 304.512C176.841 304.512 177.813 310.622 178.012 312.943C178.023 313.05 178.045 313.155 178.079 313.257C178.724 315.445 183.983 317.427 186.122 318.633C188.371 319.901 195.606 330.967 195.606 330.967C197.166 339.093 173.513 354.382 171.268 353.315Z" fill="black"/>
<path d="M172.439 351.408C170.189 350.35 166.084 350.984 159.048 348.668C152.012 346.352 150.651 335.914 150.651 335.914V335.881C150.572 335.638 149.913 334.089 145.485 328.646C140.593 322.637 130.017 292.278 130.017 292.278C130.017 292.278 120.639 281.421 120.931 277.418C121.223 273.414 119.269 262.763 119.464 250.857C119.658 238.952 140.562 231.055 140.562 231.055C180.835 223.358 171.352 273.429 170.278 277.222C169.204 281.016 174.777 291.263 174.777 291.263C173.99 295.724 178.003 302.629 178.003 302.629C178.003 302.629 178.975 308.739 179.178 311.06C179.186 311.168 179.206 311.273 179.24 311.375C179.885 313.562 185.144 315.545 187.288 316.751C189.533 318.014 196.772 329.085 196.772 329.085C198.341 337.196 174.688 352.485 172.439 351.408Z" fill="#FF987E"/>
<path opacity="0.1" d="M141.357 257.196C141.357 257.196 158.951 277.213 163.543 277.213C168.134 277.213 141.357 257.196 141.357 257.196Z" fill="black"/>
<path d="M172.439 351.408C170.189 350.35 166.084 350.984 159.048 348.668C152.013 346.352 150.651 335.914 150.651 335.914V335.881C155.314 332.545 167.122 323.123 171.776 319.677C175.051 317.261 177.724 313.71 179.289 311.356C179.934 313.543 185.193 315.526 187.336 316.732C189.582 317.995 196.82 329.066 196.82 329.066C198.341 337.196 174.688 352.485 172.439 351.408Z" fill="#FF987E"/>
<g opacity="0.1">
<path d="M108.302 165.944C108.324 165.982 108.355 166.015 108.381 166.053C108.514 165.872 108.651 165.691 108.792 165.52C108.642 165.677 108.477 165.819 108.302 165.944Z" fill="black"/>
<path d="M118.554 187.791C118.74 185.145 120.052 182.815 121.281 180.489C120.477 180.156 119.672 179.817 118.877 179.465C118.953 178.93 118.991 178.39 118.992 177.849C117.75 180.232 116.398 182.577 116.208 185.26C115.982 188.443 117.436 191.456 118.727 194.315C123.694 205.372 126.757 218.307 123.022 229.916C121.4 234.959 118.603 239.448 116.557 244.324C112.981 252.958 111.93 262.562 113.543 271.856C114.555 277.637 116.605 283.351 116.101 289.209C115.218 299.289 107.161 306.79 99.0825 311.942C95.7812 314.049 91.9231 315.979 88.233 315.841C87.8914 316.434 87.5103 316.999 87.0928 317.532C91.7287 319.739 97.0629 317.256 101.425 314.473C109.508 309.326 117.582 301.843 118.466 291.744C118.97 285.887 116.919 280.173 115.903 274.392C114.289 265.098 115.337 255.495 118.908 246.859C120.941 241.988 123.769 237.494 125.373 232.452C129.108 220.842 126.041 207.907 121.078 196.851C119.792 193.972 118.329 190.974 118.554 187.791Z" fill="black"/>
<path d="M179.055 114.372C178.62 113.891 178.153 113.445 177.658 113.037C183.015 120.529 175.281 126.897 174.896 134.961C174.552 142.252 175.117 158.561 167.626 162.212C163.923 164.018 159.95 160.063 155.889 159.967C152.959 159.9 150.28 161.907 148.491 164.404C146.701 166.902 145.6 169.876 144.305 172.706C143.124 175.275 141.765 177.745 140.24 180.094C139.356 181.49 138.322 182.882 136.916 183.668C134.486 185.036 131.529 184.269 128.908 183.382C126.36 182.518 123.835 181.565 121.334 180.523C121.328 181.019 121.29 181.514 121.219 182.005C124.516 183.454 127.861 184.753 131.255 185.903C133.871 186.79 136.828 187.557 139.263 186.189C140.664 185.403 141.68 184.006 142.586 182.61C144.113 180.265 145.471 177.797 146.648 175.228C147.947 172.397 149.043 169.418 150.837 166.921C152.632 164.423 155.305 162.422 158.231 162.488C162.297 162.584 166.27 166.539 169.973 164.733C177.464 161.082 176.894 144.774 177.243 137.482C177.65 129.003 186.205 122.398 179.055 114.372Z" fill="black"/>
</g>
<path opacity="0.1" d="M120.82 181.304C120.445 182.019 120.078 182.734 119.742 183.468C119.614 183.749 119.49 184.04 119.38 184.33C117.064 181.814 111.425 175.833 108.278 173.979C109.043 172.21 110.041 170.57 111.239 169.108C111.239 169.108 118.739 173.383 120.82 181.304Z" fill="black"/>
<path d="M121.028 180.913C119.291 172.435 111.239 167.845 111.239 167.845C110.04 169.306 109.042 170.947 108.278 172.716C111.597 174.675 117.714 181.242 119.742 183.468L121.028 180.913Z" fill="#FF987E"/>
</g>
<defs>
<linearGradient id="paint0_linear_704_2158" x1="322.627" y1="45.4714" x2="322.627" y2="36.7117" gradientUnits="userSpaceOnUse">
<stop stop-color="#808080" stop-opacity="0.25"/>
<stop offset="0.54" stop-color="#808080" stop-opacity="0.12"/>
<stop offset="1" stop-color="#808080" stop-opacity="0.1"/>
</linearGradient>
<linearGradient id="paint1_linear_704_2158" x1="248.735" y1="373.017" x2="248.735" y2="5.42809e-05" gradientUnits="userSpaceOnUse">
<stop stop-color="#808080" stop-opacity="0.25"/>
<stop offset="0.54" stop-color="#808080" stop-opacity="0.12"/>
<stop offset="1" stop-color="#808080" stop-opacity="0.1"/>
</linearGradient>
<clipPath id="clip0_704_2158">
<rect width="480" height="373.012" fill="white"/>
</clipPath>
</defs>
</svg>
